<?xml version="1.0" standalone="no"?>
<!DOCTYPE svg PUBLIC "-//W3C//DTD SVG 20010904//EN"
 "http://www.w3.org/TR/2001/REC-SVG-20010904/DTD/svg10.dtd">
<svg version="1.0" xmlns="http://www.w3.org/2000/svg"
 width="316.000000pt" height="61.000000pt" viewBox="0 0 316.000000 61.000000"
 preserveAspectRatio="xMidYMid meet">

<g transform="translate(0.000000,61.000000) scale(0.100000,-0.100000)"
fill="#000000" stroke="none">
<path d="M922 341 c2 -90 7 -152 13 -154 6 -1 11 30 13 76 2 42 7 77 11 77 5
0 21 -34 36 -75 36 -97 51 -96 85 3 14 39 28 72 32 72 4 0 8 -35 10 -77 2 -61
6 -78 18 -78 13 0 15 25 18 153 2 143 1 152 -16 152 -15 0 -27 -22 -58 -105
-21 -58 -42 -104 -47 -102 -5 1 -26 48 -47 102 -24 64 -44 101 -54 103 -15 3
-16 -12 -14 -147z"/>
<path d="M1242 338 c2 -110 6 -152 16 -156 9 -3 12 32 12 152 0 133 -2 156
-15 156 -13 0 -15 -21 -13 -152z"/>
<path d="M1357 483 c-4 -3 -7 -70 -7 -149 0 -112 3 -143 14 -147 23 -9 26 2
26 85 0 75 11 101 25 58 4 -12 20 -50 36 -86 25 -55 32 -64 44 -54 12 10 15
43 15 156 0 137 -1 144 -20 144 -18 0 -20 -7 -20 -80 0 -44 -4 -80 -8 -80 -5
0 -19 26 -31 58 -37 91 -55 114 -74 95z"/>
<path d="M1625 478 c-6 -18 -45 -252 -45 -272 0 -29 30 -18 37 14 5 26 10 30
38 30 29 0 34 -4 40 -30 8 -35 23 -48 31 -26 5 14 -32 272 -42 288 -8 13 -54
9 -59 -4z m45 -102 c0 -13 3 -38 6 -55 6 -29 4 -31 -20 -31 -27 0 -27 1 -20
48 3 26 8 50 11 55 9 16 23 6 23 -17z"/>
<path d="M1804 477 c-2 -7 -3 -76 -2 -152 3 -117 6 -140 18 -140 12 0 16 17
18 83 3 80 14 104 28 60 3 -12 20 -51 35 -86 25 -55 31 -62 44 -52 13 11 15
38 13 154 -3 125 -5 141 -20 144 -16 3 -18 -6 -18 -77 0 -45 -4 -81 -9 -81 -5
0 -21 30 -36 68 -36 89 -57 113 -71 79z"/>
<path d="M2075 478 c-32 -18 -35 -28 -35 -144 0 -93 3 -113 18 -126 35 -31 91
-28 114 6 4 6 8 37 8 69 0 57 0 57 -30 57 -23 0 -30 -4 -30 -20 0 -11 7 -20
15 -20 10 0 15 -10 15 -28 0 -48 -34 -67 -64 -36 -20 19 -23 183 -4 202 18 18
46 14 60 -8 13 -21 38 -27 38 -10 0 23 -24 59 -44 64 -29 8 -38 7 -61 -6z"/>
<path d="M2288 483 c-9 -2 -21 -17 -28 -32 -15 -37 4 -83 54 -130 38 -37 46
-70 21 -91 -13 -11 -20 -9 -40 10 -28 27 -40 22 -31 -13 13 -52 94 -54 117 -3
17 36 4 69 -46 126 -25 28 -45 60 -45 71 0 25 27 36 51 21 10 -7 26 -12 34
-12 13 0 14 4 4 23 -19 36 -42 43 -91 30z"/>
<path d="M2462 338 c3 -128 5 -153 18 -153 12 0 16 15 18 68 l3 67 34 0 35 0
0 -64 c0 -66 6 -81 28 -67 9 6 12 46 10 152 -3 126 -5 144 -20 147 -14 3 -18
-7 -20 -65 l-3 -68 -30 0 -30 0 -3 68 c-3 59 -5 67 -23 67 -19 0 -19 -6 -17
-152z"/>
<path d="M2720 483 c-33 -12 -40 -36 -40 -144 0 -125 13 -152 70 -152 57 0 70
27 70 152 0 70 -4 113 -12 124 -14 18 -64 30 -88 20z m58 -45 c7 -7 12 -45 12
-98 0 -72 -3 -90 -19 -104 -22 -20 -47 -12 -55 17 -10 36 -7 157 4 178 12 21
40 25 58 7z"/>
<path d="M2894 477 c-2 -7 -3 -76 -2 -152 3 -117 6 -140 18 -140 11 0 16 15
18 63 l3 62 34 0 c51 0 75 28 75 89 0 42 -4 53 -26 70 -31 24 -111 29 -120 8z
m114 -65 c4 -42 -12 -62 -49 -62 -28 0 -29 2 -29 51 l0 50 38 -3 c34 -3 37 -6
40 -36z"/>
<path d="M152 305 c0 -16 2 -22 5 -12 2 9 2 23 0 30 -3 6 -5 -1 -5 -18z"/>
</g>
</svg>
